<svg width="17" height="18" viewBox="0 0 17 18" fill="none" xmlns="http://www.w3.org/2000/svg">
<path d="M12.5 13.5H12.3857C12.251 12.8438 12.0137 12.2402 11.6738 11.6895C11.334 11.1387 10.9209 10.6641 10.4346 10.2656C9.94824 9.86719 9.40039 9.55664 8.79102 9.33398C8.18164 9.11133 7.54297 9 6.875 9C6.35937 9 5.86133 9.06738 5.38086 9.20215C4.90039 9.33691 4.45215 9.52441 4.03613 9.76465C3.62012 10.0049 3.24219 10.2979 2.90234 10.6436C2.5625 10.9893 2.26953 11.3701 2.02344 11.7861C1.77734 12.2021 1.58691 12.6504 1.45215 13.1309C1.31738 13.6113 1.25 14.1094 1.25 14.625H0.125C0.125 13.9219 0.227539 13.2451 0.432617 12.5947C0.637695 11.9443 0.933594 11.3438 1.32031 10.793C1.70703 10.2422 2.16406 9.75293 2.69141 9.3252C3.21875 8.89746 3.81641 8.56055 4.48438 8.31445C3.82227 7.88086 3.30664 7.33594 2.9375 6.67969C2.56836 6.02344 2.38086 5.29687 2.375 4.5C2.375 3.87891 2.49219 3.2959 2.72656 2.75098C2.96094 2.20605 3.28027 1.72852 3.68457 1.31836C4.08887 0.908203 4.56641 0.585937 5.11719 0.351562C5.66797 0.117188 6.25391 0 6.875 0C7.49609 0 8.0791 0.117188 8.62402 0.351562C9.16895 0.585937 9.64648 0.905273 10.0566 1.30957C10.4668 1.71387 10.7891 2.19141 11.0234 2.74219C11.2578 3.29297 11.375 3.87891 11.375 4.5C11.375 4.88672 11.3281 5.26465 11.2344 5.63379C11.1406 6.00293 11 6.35156 10.8125 6.67969C10.625 7.00781 10.4053 7.30957 10.1533 7.58496C9.90137 7.86035 9.60547 8.10352 9.26562 8.31445C9.92187 8.56641 10.5254 8.91211 11.0762 9.35156C11.627 9.79102 12.1016 10.3066 12.5 10.8984V13.5ZM3.5 4.5C3.5 4.96875 3.58789 5.40527 3.76367 5.80957C3.93945 6.21387 4.17969 6.57129 4.48438 6.88184C4.78906 7.19238 5.14648 7.43555 5.55664 7.61133C5.9668 7.78711 6.40625 7.875 6.875 7.875C7.33789 7.875 7.77441 7.78711 8.18457 7.61133C8.59473 7.43555 8.95215 7.19531 9.25684 6.89062C9.56152 6.58594 9.80469 6.22852 9.98633 5.81836C10.168 5.4082 10.2559 4.96875 10.25 4.5C10.25 4.03711 10.1621 3.60059 9.98633 3.19043C9.81055 2.78027 9.57031 2.42285 9.26562 2.11816C8.96094 1.81348 8.60059 1.57031 8.18457 1.38867C7.76855 1.20703 7.33203 1.11914 6.875 1.125C6.40625 1.125 5.96973 1.21289 5.56543 1.38867C5.16113 1.56445 4.80371 1.80469 4.49316 2.10938C4.18262 2.41406 3.93945 2.77441 3.76367 3.19043C3.58789 3.60645 3.5 4.04297 3.5 4.5ZM14.75 14.625H17V15.75H14.75V18H13.625V15.75H11.375V14.625H13.625V12.375H14.75V14.625Z" fill="black"/>
</svg>
