<svg width="45" height="45" viewBox="0 0 45 45" fill="none" xmlns="http://www.w3.org/2000/svg">
<path d="M0 22.5C0 10.0736 10.0736 0 22.5 0C34.9264 0 45 10.0736 45 22.5C45 34.9264 34.9264 45 22.5 45C10.0736 45 0 34.9264 0 22.5Z" fill="#0477BF"/>
<path d="M22.5244 35C23.0711 35 23.5534 34.8021 23.9714 34.4063L25.1772 33.2028C25.5845 32.7963 25.7882 32.3096 25.7882 31.7426C25.7882 31.165 25.5845 30.6836 25.1772 30.2985L20.4665 25.5809L33.7929 25.5809C34.3502 25.5809 34.8031 25.3803 35.1514 24.9791C35.4998 24.578 35.6739 24.0939 35.6739 23.527L35.6739 21.473C35.6739 20.9061 35.4998 20.422 35.1514 20.0209C34.8031 19.6197 34.3502 19.4191 33.7929 19.4191L20.4665 19.4191L25.1772 14.7015C25.5845 14.3164 25.7882 13.835 25.7882 13.2574C25.7882 12.6797 25.5845 12.1983 25.1772 11.8132L23.9714 10.6098C23.5641 10.2033 23.0818 10 22.5244 10C21.9564 10 21.4687 10.2033 21.0614 10.6098L10.5949 21.0558C10.1983 21.4303 10 21.9116 10 22.5C10 23.0777 10.1983 23.5644 10.5949 23.9602L21.0614 34.4063C21.4794 34.8021 21.9671 35 22.5244 35Z" fill="#040F0F"/>
</svg>
