<svg width="45" height="45" viewBox="0 0 45 45" fill="none" xmlns="http://www.w3.org/2000/svg">
<path d="M9.14062 43.5938H6.32812C5.76868 43.5938 5.23216 43.3715 4.83657 42.9759C4.44099 42.5803 4.21875 42.0438 4.21875 41.4844V28.8281C4.21875 28.2687 4.44099 27.7322 4.83657 27.3366C5.23216 26.941 5.76868 26.7188 6.32812 26.7188H9.14062C9.70007 26.7188 10.2366 26.941 10.6322 27.3366C11.0278 27.7322 11.25 28.2687 11.25 28.8281V41.4844C11.25 42.0438 11.0278 42.5803 10.6322 42.9759C10.2366 43.3715 9.70007 43.5938 9.14062 43.5938ZM28.8281 43.5938H26.0156C25.4562 43.5938 24.9197 43.3715 24.5241 42.9759C24.1285 42.5803 23.9062 42.0438 23.9062 41.4844V20.3906C23.9062 19.8312 24.1285 19.2947 24.5241 18.8991C24.9197 18.5035 25.4562 18.2812 26.0156 18.2812H28.8281C29.3876 18.2812 29.9241 18.5035 30.3197 18.8991C30.7153 19.2947 30.9375 19.8312 30.9375 20.3906V41.4844C30.9375 42.0438 30.7153 42.5803 30.3197 42.9759C29.9241 43.3715 29.3876 43.5938 28.8281 43.5938ZM38.6719 43.5938H35.8594C35.2999 43.5938 34.7634 43.3715 34.3678 42.9759C33.9722 42.5803 33.75 42.0438 33.75 41.4844V10.5469C33.75 9.98743 33.9722 9.45091 34.3678 9.05532C34.7634 8.65974 35.2999 8.4375 35.8594 8.4375H38.6719C39.2313 8.4375 39.7678 8.65974 40.1634 9.05532C40.559 9.45091 40.7812 9.98743 40.7812 10.5469V41.4844C40.7812 42.0438 40.559 42.5803 40.1634 42.9759C39.7678 43.3715 39.2313 43.5938 38.6719 43.5938ZM18.9844 43.5938H16.1719C15.6124 43.5938 15.0759 43.3715 14.6803 42.9759C14.2847 42.5803 14.0625 42.0438 14.0625 41.4844V3.51562C14.0625 2.95618 14.2847 2.41966 14.6803 2.02407C15.0759 1.62849 15.6124 1.40625 16.1719 1.40625H18.9844C19.5438 1.40625 20.0803 1.62849 20.4759 2.02407C20.8715 2.41966 21.0938 2.95618 21.0938 3.51562V41.4844C21.0938 42.0438 20.8715 42.5803 20.4759 42.9759C20.0803 43.3715 19.5438 43.5938 18.9844 43.5938Z" fill="#040F0F"/>
</svg>
