<svg width="124" height="124" viewBox="0 0 124 124" fill="none" xmlns="http://www.w3.org/2000/svg">
<path d="M108.5 46.5H77.5V15.5C77.5 11.3891 75.867 7.44666 72.9602 4.53984C70.0533 1.63303 66.1109 0 62 0C57.8891 0 53.9467 1.63303 51.0398 4.53984C48.133 7.44666 46.5 11.3891 46.5 15.5L47.0503 46.5H15.5C11.3891 46.5 7.44666 48.133 4.53984 51.0398C1.63303 53.9467 0 57.8891 0 62C0 66.1109 1.63303 70.0533 4.53984 72.9602C7.44666 75.867 11.3891 77.5 15.5 77.5L47.0503 76.9498L46.5 108.5C46.5 112.611 48.133 116.553 51.0398 119.46C53.9467 122.367 57.8891 124 62 124C66.1109 124 70.0533 122.367 72.9602 119.46C75.867 116.553 77.5 112.611 77.5 108.5V76.9498L108.5 77.5C112.611 77.5 116.553 75.867 119.46 72.9602C122.367 70.0533 124 66.1109 124 62C124 57.8891 122.367 53.9467 119.46 51.0398C116.553 48.133 112.611 46.5 108.5 46.5Z" fill="#C2C7CF"/>
</svg>
