<svg width="60" height="60" viewBox="0 0 60 60" fill="none" xmlns="http://www.w3.org/2000/svg">
<path d="M0 0H60V60H19C8.50659 60 0 51.4934 0 41V0Z" fill="#32618D"/>
<path d="M36.6473 22.4541L34.7756 19.4967C34.3812 19.0369 33.8405 18.75 33.2344 18.75H26.7656C26.1595 18.75 25.6188 19.0369 25.2244 19.4967L23.3527 22.4541C22.9582 22.9146 22.4498 23.25 21.8438 23.25H17.625C17.0283 23.25 16.456 23.4871 16.034 23.909C15.6121 24.331 15.375 24.9033 15.375 25.5V39C15.375 39.5967 15.6121 40.169 16.034 40.591C16.456 41.0129 17.0283 41.25 17.625 41.25H42.375C42.9717 41.25 43.544 41.0129 43.966 40.591C44.3879 40.169 44.625 39.5967 44.625 39V25.5C44.625 24.9033 44.3879 24.331 43.966 23.909C43.544 23.4871 42.9717 23.25 42.375 23.25H38.2266C37.6184 23.25 37.0418 22.9146 36.6473 22.4541Z" stroke="#D0E4FF" stroke-width="2.25" stroke-linecap="round" stroke-linejoin="round"/>
<path d="M30 36.75C33.1066 36.75 35.625 34.2316 35.625 31.125C35.625 28.0184 33.1066 25.5 30 25.5C26.8934 25.5 24.375 28.0184 24.375 31.125C24.375 34.2316 26.8934 36.75 30 36.75Z" stroke="#D0E4FF" stroke-width="2.25" stroke-miterlimit="10"/>
<path d="M20.7188 23.1094V21.5625H19.0312V23.1094" stroke="#D0E4FF" stroke-width="2.25" stroke-linecap="round" stroke-linejoin="round"/>
</svg>
