<svg width="36" height="36" viewBox="0 0 36 36" fill="none" xmlns="http://www.w3.org/2000/svg">
<path d="M24.6473 10.4541L22.7756 7.49672C22.3812 7.03688 21.8405 6.75 21.2344 6.75H14.7656C14.1595 6.75 13.6188 7.03688 13.2244 7.49672L11.3527 10.4541C10.9582 10.9146 10.4498 11.25 9.84375 11.25H5.625C5.02826 11.25 4.45597 11.4871 4.03401 11.909C3.61205 12.331 3.375 12.9033 3.375 13.5V27C3.375 27.5967 3.61205 28.169 4.03401 28.591C4.45597 29.0129 5.02826 29.25 5.625 29.25H30.375C30.9717 29.25 31.544 29.0129 31.966 28.591C32.3879 28.169 32.625 27.5967 32.625 27V13.5C32.625 12.9033 32.3879 12.331 31.966 11.909C31.544 11.4871 30.9717 11.25 30.375 11.25H26.2266C25.6184 11.25 25.0418 10.9146 24.6473 10.4541Z" stroke="#F6F6F6" stroke-width="2.25" stroke-linecap="round" stroke-linejoin="round"/>
<path d="M18 24.75C21.1066 24.75 23.625 22.2316 23.625 19.125C23.625 16.0184 21.1066 13.5 18 13.5C14.8934 13.5 12.375 16.0184 12.375 19.125C12.375 22.2316 14.8934 24.75 18 24.75Z" stroke="#F6F6F6" stroke-width="2.25" stroke-miterlimit="10"/>
<path d="M8.71875 11.1094V9.5625H7.03125V11.1094" stroke="#F6F6F6" stroke-width="2.25" stroke-linecap="round" stroke-linejoin="round"/>
</svg>
