<svg width="45" height="44" viewBox="0 0 45 44" fill="none" xmlns="http://www.w3.org/2000/svg">
<path d="M37.5 3.75H7.5V7.5L18.3938 15.675C15.0876 16.7652 12.3496 19.1235 10.7816 22.2315C9.21347 25.3396 8.94359 28.9431 10.0312 32.25C10.5694 33.8882 11.4252 35.4042 12.5497 36.7113C13.6743 38.0185 15.0455 39.091 16.585 39.8677C18.1244 40.6444 19.8019 41.11 21.5215 41.2378C23.241 41.3656 24.9689 41.1531 26.6062 40.6125C29.2321 39.7494 31.5185 38.0793 33.1394 35.8404C34.7603 33.6014 35.633 30.9079 35.633 28.1438C35.633 25.3796 34.7603 22.6861 33.1394 20.4471C31.5185 18.2082 29.2321 16.5381 26.6062 15.675L37.5 7.5V3.75ZM28.0125 36.5625L22.5 33.3375L16.9875 36.5625L18.45 30.3188L13.5938 26.1188L19.9875 25.575L22.5 19.6875L25.0125 25.575L31.4062 26.1188L26.55 30.3188L28.0125 36.5625Z" fill="#040F0F"/>
</svg>
