<svg width="70" height="70" viewBox="0 0 70 70" fill="none" xmlns="http://www.w3.org/2000/svg">
<g filter="url(#filter0_d_136_2169)">
<circle cx="35" cy="31" r="28.5" fill="#0477BF" stroke="#F8F9FF" stroke-width="5"/>
<g clip-path="url(#clip0_136_2169)">
<rect width="40" height="40" transform="translate(15 11)" fill="#0477BF"/>
<path d="M47.5 18.6925H44.5385L42.5323 15.1525C42.1846 14.5387 41.4308 14.0771 40.3846 14.0771H29.6154C28.5246 14.0771 27.8169 14.5387 27.4677 15.1525L25.4615 18.6925H22.5C21.515 18.6923 20.5397 18.8862 19.6296 19.263C18.7196 19.6399 17.8927 20.1923 17.1962 20.8888C16.4998 21.5853 15.9473 22.4121 15.5705 23.3222C15.1937 24.2322 14.9998 25.2076 15 26.1925L15 38.8848C14.9998 39.8698 15.1937 40.8452 15.5705 41.7552C15.9473 42.6652 16.4998 43.4921 17.1962 44.1886C17.8927 44.8851 18.7196 45.4375 19.6296 45.8144C20.5397 46.1912 21.515 46.385 22.5 46.3848H47.5C48.485 46.385 49.4603 46.1912 50.3704 45.8144C51.2804 45.4375 52.1073 44.8851 52.8038 44.1886C53.5002 43.4921 54.0527 42.6652 54.4295 41.7552C54.8063 40.8452 55.0002 39.8698 55 38.8848V26.1925C55.0002 25.2076 54.8063 24.2322 54.4295 23.3222C54.0527 22.4121 53.5002 21.5853 52.8038 20.8888C52.1073 20.1923 51.2804 19.6399 50.3704 19.263C49.4603 18.8862 48.485 18.6923 47.5 18.6925ZM35 43.3079C32.1438 43.3079 29.4046 42.1733 27.385 40.1537C25.3654 38.1341 24.2308 35.3949 24.2308 32.5387H21.1538L25.7692 26.3848L30.3846 32.5387H27.3077C27.3077 36.7802 30.7585 40.231 35 40.231C36.9508 40.231 38.7154 39.4771 40.0723 38.2756L41.94 40.7664C40.0011 42.4094 37.5415 43.3102 35 43.3079ZM44.2308 38.6925L39.6154 32.5387H42.6923C42.6923 28.2971 39.2415 24.8464 35 24.8464C33.0492 24.8464 31.2846 25.6002 29.9277 26.8018L28.06 24.311C29.9989 22.6679 32.4585 21.7672 35 21.7695C37.8562 21.7695 40.5954 22.9041 42.615 24.9237C44.6346 26.9433 45.7692 29.6825 45.7692 32.5387H48.8462L44.2308 38.6925Z" fill="#040F0F"/>
</g>
</g>
<defs>
<filter id="filter0_d_136_2169" x="0" y="0" width="70" height="70" filterUnits="userSpaceOnUse" color-interpolation-filters="sRGB">
<feFlood flood-opacity="0" result="BackgroundImageFix"/>
<feColorMatrix in="SourceAlpha" type="matrix" values="0 0 0 0 0 0 0 0 0 0 0 0 0 0 0 0 0 0 127 0" result="hardAlpha"/>
<feOffset dy="4"/>
<feGaussianBlur stdDeviation="2"/>
<feComposite in2="hardAlpha" operator="out"/>
<feColorMatrix type="matrix" values="0 0 0 0 0 0 0 0 0 0 0 0 0 0 0 0 0 0 0.25 0"/>
<feBlend mode="normal" in2="BackgroundImageFix" result="effect1_dropShadow_136_2169"/>
<feBlend mode="normal" in="SourceGraphic" in2="effect1_dropShadow_136_2169" result="shape"/>
</filter>
<clipPath id="clip0_136_2169">
<rect width="40" height="40" fill="white" transform="translate(15 11)"/>
</clipPath>
</defs>
</svg>
