<svg width="36" height="36" viewBox="0 0 36 36" fill="none" xmlns="http://www.w3.org/2000/svg">
<path d="M29.295 9.61503C29.7285 10.0249 29.9815 10.5901 29.9984 11.1864C30.0153 11.7827 29.7946 12.3613 29.385 12.795L16.635 26.295C16.4284 26.5134 16.18 26.6882 15.9047 26.809C15.6294 26.9298 15.3326 26.9942 15.032 26.9984C14.7314 27.0026 14.4329 26.9465 14.1543 26.8334C13.8758 26.7204 13.6227 26.5526 13.41 26.34L6.66 19.59C6.26256 19.1635 6.04619 18.5994 6.05647 18.0165C6.06676 17.4336 6.30289 16.8774 6.71513 16.4652C7.12737 16.0529 7.68353 15.8168 8.26643 15.8065C8.84933 15.7962 9.41347 16.0126 9.84 16.41L14.955 21.522L26.115 9.70503C26.5248 9.27152 27.09 9.01851 27.6864 9.00163C28.2827 8.98476 28.8613 9.20539 29.295 9.61503Z" fill="#F6F6F6"/>
</svg>
