<svg width="45" height="45" viewBox="0 0 45 45" fill="none" xmlns="http://www.w3.org/2000/svg">
<path fill-rule="evenodd" clip-rule="evenodd" d="M8.4375 37.9688C8.06454 37.9688 7.70685 37.8206 7.44313 37.5569C7.17941 37.2931 7.03125 36.9355 7.03125 36.5625V8.4375C7.03125 8.06454 7.17941 7.70685 7.44313 7.44313C7.70685 7.17941 8.06454 7.03125 8.4375 7.03125H34.4531C35.0126 7.03125 35.5491 6.80901 35.9447 6.41343C36.3403 6.01784 36.5625 5.48132 36.5625 4.92188C36.5625 4.36243 36.3403 3.82591 35.9447 3.43032C35.5491 3.03474 35.0126 2.8125 34.4531 2.8125H8.4375C6.94566 2.8125 5.51492 3.40513 4.46002 4.46002C3.40513 5.51492 2.8125 6.94566 2.8125 8.4375V36.5625C2.8125 38.0543 3.40513 39.4851 4.46002 40.54C5.51492 41.5949 6.94566 42.1875 8.4375 42.1875H36.5625C38.0543 42.1875 39.4851 41.5949 40.54 40.54C41.5949 39.4851 42.1875 38.0543 42.1875 36.5625V27.4219C42.1875 26.8624 41.9653 26.3259 41.5697 25.9303C41.1741 25.5347 40.6376 25.3125 40.0781 25.3125C39.5187 25.3125 38.9822 25.5347 38.5866 25.9303C38.191 26.3259 37.9688 26.8624 37.9688 27.4219V36.5625C37.9688 36.9355 37.8206 37.2931 37.5569 37.5569C37.2931 37.8206 36.9355 37.9688 36.5625 37.9688H8.4375ZM44.3813 13.1625C44.7539 12.7626 44.9567 12.2338 44.9471 11.6873C44.9374 11.1408 44.716 10.6194 44.3296 10.2329C43.9431 9.84646 43.4217 9.62509 42.8752 9.61545C42.3288 9.6058 41.7999 9.80865 41.4 10.1812L25.7681 25.8103L20.5003 20.3653C20.3081 20.1645 20.0781 20.0036 19.8236 19.892C19.569 19.7803 19.2949 19.7201 19.0169 19.7148C18.739 19.7094 18.4628 19.7591 18.2041 19.8608C17.9454 19.9626 17.7094 20.1145 17.5096 20.3078C17.3099 20.5011 17.1503 20.732 17.04 20.9871C16.9298 21.2423 16.871 21.5168 16.8672 21.7947C16.8634 22.0727 16.9145 22.3486 17.0177 22.6067C17.1209 22.8649 17.2741 23.1 17.4684 23.2988L24.2269 30.285C24.4213 30.4867 24.654 30.6476 24.9114 30.7584C25.1687 30.8692 25.4455 30.9276 25.7257 30.9302C26.0058 30.9328 26.2837 30.8796 26.543 30.7736C26.8024 30.6677 27.0381 30.5111 27.2363 30.3131L44.3813 13.1625Z" fill="#040F0F"/>
</svg>
