<svg width="430" height="929" viewBox="0 0 430 929" fill="none" xmlns="http://www.w3.org/2000/svg">
<path d="M247.751 745.881C252.948 754.196 258.145 754.196 263.342 745.881C268.539 737.566 274.256 737.566 280.492 745.881C285.689 754.196 290.886 754.196 296.083 745.881C301.279 737.566 306.476 737.566 311.673 745.881" stroke="#B8FF66" stroke-width="4" stroke-linecap="round"/>
<path d="M215.79 89.5107L169.018 148.755" stroke="#6680FF" stroke-width="3" stroke-linecap="round"/>
<path d="M397.662 570.067L392.946 575.202L386.951 573.483L390.158 579.268L388.439 585.263L393.794 583.555L398.93 588.271L399.15 581.847L404.935 578.64L398.941 576.921L397.662 570.067Z" fill="#66C2FF"/>
<path d="M151.206 400.213C159.325 395.334 164.109 388.388 161.891 384.698C159.674 381.008 151.295 381.971 143.176 386.849C135.058 391.727 130.274 398.673 132.491 402.364C134.708 406.054 143.087 405.091 151.206 400.213Z" fill="#FF6691"/>
<path d="M119.128 674.164L112.892 695.991L95.7418 691.313L103.537 669.486L119.128 674.164Z" fill="#FA66FF"/>
<path d="M243.854 423.152L229.822 407.561L243.854 395.089L257.885 410.68L243.854 423.152Z" fill="#7DFF66"/>
<path d="M201.759 239.182L192.404 268.804L175.254 264.127L184.609 234.505L201.759 239.182Z" fill="#FAFF66"/>
<path d="M8.69481 692.719L8.37272 684.33L14.86 679.735L6.62634 676.574L3.45569 669.453L-0.339052 676.262L-8.72873 676.584L-4.13379 683.071L-5.87011 690.671L1.2513 687.5L8.69481 692.719Z" fill="#FC66FF"/>
<path d="M304.657 658.572L379.493 677.281" stroke="#66BDFF" stroke-width="4" stroke-linecap="round"/>
<path d="M218.815 530.85C221.996 526.779 221.824 521.33 218.431 518.68C215.039 516.029 209.71 517.181 206.529 521.252C203.349 525.323 203.52 530.772 206.913 533.422C210.306 536.073 215.634 534.921 218.815 530.85Z" fill="#B366FF"/>
<path d="M10.586 415.52L19.1563 427.06L15.067 440.84L29.4995 435.597L41.3979 444.244L40.9302 428.582L50.9143 419.903L37.1344 415.814L31.7833 402.937L24.6922 414.944L10.586 415.52Z" fill="#ED66FF"/>
<path d="M84.8282 901.788C90.0252 910.103 95.7418 910.103 101.978 901.788C107.175 893.473 112.372 893.473 117.569 901.788C122.766 910.103 128.482 910.103 134.719 901.788C139.915 893.473 145.112 893.473 150.309 901.788" stroke="#CC66FF" stroke-width="4" stroke-linecap="round"/>
<path d="M115.06 473.1C104.804 474.36 96.9157 478.845 97.4403 483.118C97.965 487.391 106.704 489.834 116.96 488.575C127.215 487.316 135.104 482.831 134.579 478.558C134.054 474.284 125.315 471.841 115.06 473.1Z" fill="#FF8A66"/>
<path d="M303.098 184.614L326.484 181.496L329.603 201.764L306.217 204.882L303.098 184.614Z" fill="#CF66FF"/>
<path d="M204.877 772.385L173.695 794.212" stroke="#FF668C" stroke-width="3" stroke-linecap="round"/>
<path d="M259.643 75.5681L271.509 71.4229L280.769 77.4062L281.023 65.2321L290.382 56.8417L278.054 54.3884L273.909 42.5219L266.903 52.9579L254.883 54.9036L262.096 63.2402L259.643 75.5681Z" fill="#FF7A66"/>
<path d="M321.807 897.11L303.098 881.52L331.162 878.401L321.807 897.11Z" fill="#FF66D9"/>
<path d="M60.6269 273.446C68.3469 274.121 74.9702 270.496 75.4205 265.35C75.8707 260.203 69.9775 255.483 62.2575 254.808C54.5375 254.132 47.9142 257.757 47.4639 262.904C47.0137 268.05 52.9069 272.77 60.6269 273.446Z" fill="#DB66FF"/>
<path d="M23.4948 147.423L34.3934 154.242L35.4692 166.067L44.7728 157.615L56.6349 161.469L52.1117 150.164L58.9315 139.265L47.1068 140.341L38.6546 131.037L34.8003 142.9L23.4948 147.423Z" fill="#66B8FF"/>
<path d="M357.666 315.576L385.729 318.694L370.138 342.08L357.666 315.576Z" fill="#66FFFF"/>
<path d="M33.3789 727.951C30.2608 737.306 33.3789 741.983 42.7333 741.983C53.1271 743.022 56.2453 748.219 52.0878 757.574C47.9302 766.928 51.0484 771.605 61.4422 771.605C71.836 771.605 74.9542 776.282 70.7966 785.637" stroke="#FF666B" stroke-width="3" stroke-linecap="round"/>
<path d="M173.588 633.173C164.302 637.703 158.915 645.766 161.557 651.184C164.199 656.601 173.87 657.321 183.157 652.791C192.444 648.262 197.83 640.198 195.188 634.781C192.546 629.363 182.875 628.644 173.588 633.173Z" fill="#FF7866"/>
<path d="M440.297 886.197L423.147 884.638L434.06 870.606L440.297 886.197Z" fill="#FF7F66"/>
<path d="M42.7333 590.753C52.0877 588.674 53.6468 583.997 47.4105 576.721C40.1349 570.485 41.1742 566.847 50.5287 565.808C59.8831 563.729 60.9225 559.052 53.6468 551.776C47.4105 545.54 48.9696 541.382 58.324 539.304" stroke="#66FF9E" stroke-width="3" stroke-linecap="round"/>
<path d="M232.359 923.563C239.21 922.843 244.325 918.094 243.785 912.956C243.245 907.818 237.254 904.237 230.403 904.957C223.553 905.677 218.437 910.426 218.977 915.564C219.517 920.702 225.508 924.283 232.359 923.563Z" fill="#FF7566"/>
<path d="M153.427 55.2113L161.223 41.1797L169.018 55.2113H153.427Z" fill="#FFED66"/>
<path d="M338.957 469.925L298.421 510.461" stroke="#A866FF" stroke-width="4" stroke-linecap="round"/>
<path d="M444.974 416.917L421.588 409.121L429.383 382.617L452.769 390.413L444.974 416.917Z" fill="#AB66FF"/>
<path d="M259.444 522.934L290.626 563.469" stroke="#FF66B8" stroke-width="4" stroke-linecap="round"/>
<path d="M37.229 19.5893L37.7725 13.3767L44.2568 10.814L39.8692 7.30005L38.8596 0.95161L33.7925 5.20338L27.7158 3.10672L30.2786 9.59104L26.7646 13.9787L32.9772 14.5222L37.229 19.5893Z" fill="#A6FF66"/>
<path d="M293.744 304.663C288.547 297.388 284.909 297.907 282.83 306.222C279.712 314.537 276.075 315.057 271.917 307.781C266.72 300.506 263.082 301.025 261.003 309.34C257.885 317.656 254.247 318.175 250.09 310.9" stroke="#E366FF" stroke-width="3" stroke-linecap="round"/>
<path d="M405.997 94.188L434.06 89.5107L438.738 119.133L409.115 122.251L405.997 94.188Z" fill="#66F0FF"/>
<path d="M373.484 821.173C364.476 824.1 358.468 830.456 360.064 835.37C361.661 840.283 370.258 841.893 379.266 838.967C388.274 836.04 394.282 829.684 392.685 824.77C391.089 819.857 382.492 818.247 373.484 821.173Z" fill="#66FFFC"/>
<path d="M176.825 666.482L166.452 662.145L164.667 652.963L158.205 660.572L147.194 661.124L153.571 669.414L150.467 677.958L159.649 676.174L168.789 682.338L168.237 671.328L176.825 666.482Z" fill="#66FFBD"/>
<path d="M342.756 396.263C339.853 403.448 341.383 410.842 346.173 412.777C350.963 414.713 357.2 410.457 360.103 403.272C363.006 396.086 361.476 388.693 356.686 386.757C351.896 384.822 345.659 389.078 342.756 396.263Z" fill="#8CFF66"/>
<path d="M11.5519 850.339L-5.5979 864.37V837.866L11.5519 850.339Z" fill="#FF6673"/>
<path d="M236.672 404.329L243.285 404.214L246.688 409.667L248.777 403.015L255.352 400.695L249.783 397.485L249.668 390.871L245.336 395.357L238.684 393.268L241.004 399.843L236.672 404.329Z" fill="#FF668C"/>
<path d="M48.9696 317.136L105.096 335.845" stroke="#FAFF66" stroke-width="4" stroke-linecap="round"/>
<path d="M61.4422 549.438L33.3789 571.265" stroke="#FFC266" stroke-width="4" stroke-linecap="round"/>
<path d="M226.657 693.631C227.392 687.649 225.216 682.459 221.798 682.039C218.379 681.619 215.012 686.129 214.278 692.111C213.543 698.094 215.719 703.284 219.138 703.703C222.556 704.123 225.923 699.614 226.657 693.631Z" fill="#667AFF"/>
<path d="M162.946 507.874L161.77 519.163L149.758 522.864L160.324 528.917L160.683 539.935L168.813 532.169L180.643 536.416L175.407 524.674L181.73 515.643L170.712 516.003L162.946 507.874Z" fill="#BDFF66"/>
<path d="M212.672 731.849L189.286 750.558L181.491 724.054L212.672 731.849Z" fill="#FF66E3"/>
<path d="M181.491 301.545L193.963 335.845" stroke="#66FFF7" stroke-width="3" stroke-linecap="round"/>
<path d="M146.414 281.371C143.909 285.89 144.321 290.906 147.333 292.576C150.346 294.246 154.818 291.936 157.323 287.418C159.827 282.899 159.416 277.883 156.404 276.213C153.391 274.543 148.919 276.853 146.414 281.371Z" fill="#FF6666"/>
<path d="M8.43372 855.015C18.7663 855.015 27.1426 849.431 27.1426 842.543C27.1426 835.654 18.7663 830.07 8.43372 830.07C-1.8989 830.07 -10.2751 835.654 -10.2751 842.543C-10.2751 849.431 -1.8989 855.015 8.43372 855.015Z" fill="#FF9E66"/>
<path d="M70.0171 401.326C74.1747 394.05 71.5762 391.452 62.2218 393.531C53.9067 396.649 52.3476 394.05 57.5446 385.735C61.7021 378.46 59.1036 375.861 49.7492 377.94C41.4341 381.058 39.3554 378.46 43.5129 370.145" stroke="#66C9FF" stroke-width="3" stroke-linecap="round"/>
<path d="M392.815 155.374C384.626 152.713 376.909 153.876 375.579 157.97C374.248 162.065 379.808 167.541 387.998 170.202C396.187 172.863 403.904 171.7 405.234 167.606C406.564 163.511 401.004 158.035 392.815 155.374Z" fill="#FF66D4"/>
<path d="M48.9696 98.8656L70.7966 78.5977L77.0329 106.661L48.9696 98.8656Z" fill="#D666FF"/>
<path d="M316.35 11.5576C319.469 19.8726 322.587 19.8726 325.705 11.5576C328.823 3.24253 331.941 3.24253 335.059 11.5576C337.138 19.8726 339.737 19.8726 342.855 11.5576C345.973 3.24253 349.091 3.24253 352.209 11.5576" stroke="#E8FF66" stroke-width="4" stroke-linecap="round"/>
<path d="M17.7881 906.465L61.4422 893.992" stroke="#F266FF" stroke-width="4" stroke-linecap="round"/>
<path d="M94.9623 56.7705C100.159 65.0855 105.876 65.0855 112.112 56.7705C117.309 48.4554 123.026 48.4554 129.262 56.7705C134.459 65.0855 139.656 65.0855 144.853 56.7705C151.089 48.4554 156.805 48.4554 162.002 56.7705" stroke="#669CFF" stroke-width="4" stroke-linecap="round"/>
<path d="M207.995 666.368C215.271 672.604 220.987 671.045 225.145 661.69C227.224 652.336 231.901 650.777 239.176 657.013C246.452 663.249 252.169 661.69 256.326 652.336C258.405 642.982 263.082 641.422 270.358 647.659" stroke="#E6FF66" stroke-width="3" stroke-linecap="round"/>
<path d="M69.601 428.819L69.843 419.338L78.6724 414.949L70.302 411.402L69.0001 402.138L62.1485 409.399L52.4512 407.613L58.3847 416.225L53.2941 424.813L62.3405 421.967L69.601 428.819Z" fill="#9966FF"/>
<path d="M69.2376 496.429L91.0646 502.665L83.2692 530.728L61.4422 522.933L69.2376 496.429Z" fill="#F0FF66"/>
</svg>
