<svg width="24" height="24" viewBox="0 0 24 24" fill="none" xmlns="http://www.w3.org/2000/svg">
<g clip-path="url(#clip0_828_1307)">
<path d="M5.625 39.375V31.4062L30.375 6.70313C30.75 6.35938 31.1644 6.09375 31.6181 5.90625C32.0719 5.71875 32.5481 5.625 33.0469 5.625C33.5456 5.625 34.03 5.71875 34.5 5.90625C34.97 6.09375 35.3762 6.375 35.7187 6.75L38.2969 9.375C38.6719 9.71875 38.9456 10.125 39.1181 10.5938C39.2906 11.0625 39.3762 11.5313 39.375 12C39.375 12.5 39.2894 12.9769 39.1181 13.4306C38.9469 13.8844 38.6731 14.2981 38.2969 14.6719L13.5938 39.375H5.625ZM33 14.625L35.625 12L33 9.375L30.375 12L33 14.625Z" fill="#040F0F"/>
<path d="M3 21V16.75L16.2 3.575C16.4 3.39167 16.621 3.25 16.863 3.15C17.105 3.05 17.359 3 17.625 3C17.891 3 18.1493 3.05 18.4 3.15C18.6507 3.25 18.8673 3.4 19.05 3.6L20.425 5C20.625 5.18333 20.771 5.4 20.863 5.65C20.955 5.9 21.0007 6.15 21 6.4C21 6.66667 20.9543 6.921 20.863 7.163C20.7717 7.405 20.6257 7.62567 20.425 7.825L7.25 21H3ZM17.6 7.8L19 6.4L17.6 5L16.2 6.4L17.6 7.8Z" fill="#040F0F"/>
</g>
<defs>
<clipPath id="clip0_828_1307">
<rect width="24" height="24" fill="white"/>
</clipPath>
</defs>
</svg>
