<svg width="28" height="28" viewBox="0 0 28 28" fill="none" xmlns="http://www.w3.org/2000/svg">
<g opacity="0.5">
<path d="M4.66665 23.3337C4.02498 23.3337 3.47587 23.1054 3.01931 22.6488C2.56276 22.1923 2.33409 21.6428 2.33331 21.0003V7.00033C2.33331 6.35866 2.56198 5.80955 3.01931 5.35299C3.47665 4.89644 4.02576 4.66777 4.66665 4.66699H23.3333C23.975 4.66699 24.5245 4.89566 24.9818 5.35299C25.4391 5.81033 25.6674 6.35944 25.6666 7.00033V21.0003C25.6666 21.642 25.4384 22.1915 24.9818 22.6488C24.5253 23.1062 23.9758 23.3344 23.3333 23.3337H4.66665ZM14 15.167L4.66665 9.33366V21.0003H23.3333V9.33366L14 15.167ZM14 12.8337L23.3333 7.00033H4.66665L14 12.8337ZM4.66665 9.33366V7.00033V21.0003V9.33366Z" fill="#040F0F"/>
</g>
</svg>
