<svg width="62" height="62" viewBox="0 0 62 62" fill="none" xmlns="http://www.w3.org/2000/svg">
<circle cx="31" cy="31" r="28.5" fill="#0477BF" stroke="#F8F9FF" stroke-width="5"/>
<g clip-path="url(#clip0_136_2168)">
<path d="M27.3266 48.0755C27.0388 47.954 26.7996 47.7402 26.6469 47.4677C26.4941 47.1953 26.4364 46.8797 26.4828 46.5708L29.0422 29.9068H22.25C22.0347 29.9125 21.8209 29.8688 21.6251 29.7789C21.4294 29.6889 21.2569 29.5553 21.121 29.3881C20.9852 29.221 20.8895 29.0248 20.8414 28.8149C20.7933 28.6049 20.7941 28.3867 20.8438 28.1771L25.0625 9.89582C25.1367 9.58119 25.3171 9.30176 25.5732 9.10454C25.8294 8.90732 26.1456 8.80436 26.4688 8.813H40.5313C40.7413 8.81229 40.9489 8.85865 41.1387 8.94869C41.3285 9.03874 41.4958 9.17016 41.6281 9.33331C41.7624 9.49831 41.8574 9.69161 41.9061 9.89865C41.9548 10.1057 41.9559 10.3211 41.9094 10.5286L39.4766 21.4693H46.1563C46.4198 21.4687 46.6782 21.5423 46.902 21.6815C47.1258 21.8208 47.3059 22.0201 47.4219 22.2568C47.5226 22.4839 47.5614 22.7337 47.5343 22.9807C47.5071 23.2278 47.4149 23.4632 47.2672 23.663L28.9859 47.5692C28.8624 47.7524 28.6974 47.9039 28.5044 48.0114C28.3114 48.1189 28.0958 48.1794 27.875 48.188C27.6868 48.1845 27.5009 48.1464 27.3266 48.0755Z" fill="#040F0F"/>
</g>
<defs>
<clipPath id="clip0_136_2168">
<rect width="40" height="40" fill="white" transform="translate(11 11)"/>
</clipPath>
</defs>
</svg>
