<svg width="100" height="100" viewBox="0 0 100 100" fill="none" xmlns="http://www.w3.org/2000/svg">
<path d="M0 30C0 13.4315 13.4315 0 30 0H95C97.7614 0 100 2.23858 100 5V70C100 86.5685 86.5685 100 70 100H5C2.23858 100 0 97.7614 0 95V30Z" fill="#BA1A1A"/>
<path d="M38.1564 80V67.04H39.9644V72.64H43.2924V67.04H45.1004V80H43.2924V73.936H39.9644V80H38.1564ZM47.0932 80V70.752H48.8052V80H47.0932ZM47.0932 69.376V67.584H48.8052V69.376H47.0932ZM53.0374 82.864C52.4828 82.864 51.9814 82.8053 51.5334 82.688C51.0854 82.5707 50.7334 82.384 50.4774 82.128C50.2214 81.872 50.0934 81.536 50.0934 81.12C50.0934 80.8213 50.1574 80.56 50.2854 80.336C50.4134 80.112 50.5788 79.92 50.7814 79.76C50.9841 79.5893 51.1974 79.4507 51.4214 79.344C51.1228 79.2587 50.8988 79.1253 50.7494 78.944C50.6001 78.752 50.5254 78.5547 50.5254 78.352C50.5254 78.0107 50.6161 77.7173 50.7974 77.472C50.9788 77.2267 51.2294 76.96 51.5494 76.672C51.1974 76.4053 50.9308 76.064 50.7494 75.648C50.5681 75.232 50.4774 74.656 50.4774 73.92C50.4774 73.1947 50.5734 72.592 50.7654 72.112C50.9681 71.6213 51.2614 71.2533 51.6454 71.008C52.0401 70.752 52.5201 70.624 53.0854 70.624C53.5868 70.624 53.9868 70.7093 54.2854 70.88C54.5948 71.0507 54.8294 71.3067 54.9894 71.648C55.0428 71.5627 55.1868 71.4187 55.4214 71.216C55.6561 71.0027 55.9281 70.8267 56.2374 70.688L56.4934 70.576L56.9254 71.68C56.7868 71.7013 56.6001 71.7547 56.3654 71.84C56.1414 71.9147 55.9281 71.9947 55.7254 72.08C55.5334 72.1547 55.4108 72.2187 55.3574 72.272C55.4321 72.4533 55.4961 72.7147 55.5494 73.056C55.6134 73.3973 55.6454 73.7013 55.6454 73.968C55.6454 74.5973 55.5654 75.152 55.4054 75.632C55.2454 76.112 54.9788 76.4907 54.6054 76.768C54.2428 77.0347 53.7361 77.168 53.0854 77.168C52.9468 77.168 52.7974 77.1573 52.6374 77.136C52.4774 77.1147 52.3334 77.088 52.2054 77.056C52.1414 77.152 52.0721 77.264 51.9974 77.392C51.9334 77.52 51.9014 77.6427 51.9014 77.76C51.9014 77.8773 51.9601 77.9733 52.0774 78.048C52.2054 78.112 52.4028 78.1547 52.6694 78.176L54.1094 78.304C54.8348 78.368 55.3734 78.5867 55.7254 78.96C56.0774 79.3333 56.2534 79.8667 56.2534 80.56C56.2534 81.0613 56.1361 81.4827 55.9014 81.824C55.6668 82.176 55.3094 82.4373 54.8294 82.608C54.3601 82.7787 53.7628 82.864 53.0374 82.864ZM53.1654 81.52C53.7734 81.52 54.2214 81.4453 54.5094 81.296C54.7974 81.1573 54.9414 80.928 54.9414 80.608C54.9414 80.416 54.9041 80.256 54.8294 80.128C54.7654 80 54.6428 79.8987 54.4614 79.824C54.2801 79.7493 54.0188 79.696 53.6774 79.664L52.2214 79.536C52.1041 79.6533 51.9921 79.7707 51.8854 79.888C51.7788 80.0053 51.6934 80.128 51.6294 80.256C51.5654 80.3947 51.5334 80.5387 51.5334 80.688C51.5334 80.9653 51.6508 81.1733 51.8854 81.312C52.1201 81.4507 52.5468 81.52 53.1654 81.52ZM53.0854 75.968C53.3308 75.968 53.5228 75.9253 53.6614 75.84C53.8108 75.744 53.9228 75.6107 53.9974 75.44C54.0721 75.2587 54.1201 75.04 54.1414 74.784C54.1734 74.528 54.1894 74.24 54.1894 73.92C54.1894 73.6 54.1734 73.312 54.1414 73.056C54.1201 72.7893 54.0721 72.5653 53.9974 72.384C53.9334 72.192 53.8268 72.048 53.6774 71.952C53.5388 71.856 53.3468 71.808 53.1014 71.808C52.8668 71.808 52.6694 71.856 52.5094 71.952C52.3601 72.048 52.2481 72.1867 52.1734 72.368C52.0988 72.5387 52.0454 72.7573 52.0134 73.024C51.9814 73.28 51.9654 73.5787 51.9654 73.92C51.9654 74.208 51.9761 74.48 51.9974 74.736C52.0294 74.9813 52.0828 75.1947 52.1574 75.376C52.2428 75.5573 52.3601 75.7013 52.5094 75.808C52.6588 75.9147 52.8508 75.968 53.0854 75.968ZM57.6386 80V67.04H59.3506V71.712C59.6599 71.4133 60.0066 71.1573 60.3906 70.944C60.7746 70.7307 61.2012 70.624 61.6706 70.624C62.0332 70.624 62.3106 70.72 62.5026 70.912C62.7052 71.104 62.8439 71.344 62.9186 71.632C63.0039 71.92 63.0466 72.2133 63.0466 72.512V80H61.3346V73.008C61.3346 72.6773 61.2866 72.4213 61.1906 72.24C61.0946 72.0587 60.8972 71.968 60.5986 71.968C60.3959 71.968 60.1826 72.0267 59.9586 72.144C59.7452 72.2613 59.5426 72.4053 59.3506 72.576V80H57.6386Z" fill="white"/>
<path d="M58 23.4375C58 22.6916 58.2963 21.9762 58.8238 21.4488C59.3512 20.9213 60.0666 20.625 60.8125 20.625H64.5625C65.3084 20.625 66.0238 20.9213 66.5512 21.4488C67.0787 21.9762 67.375 22.6916 67.375 23.4375V51.5625C67.375 52.3084 67.0787 53.0238 66.5512 53.5512C66.0238 54.0787 65.3084 54.375 64.5625 54.375H60.8125C60.0666 54.375 59.3512 54.0787 58.8238 53.5512C58.2963 53.0238 58 52.3084 58 51.5625V23.4375ZM45.8125 34.6875C45.8125 33.9416 46.1088 33.2262 46.6363 32.6988C47.1637 32.1713 47.8791 31.875 48.625 31.875H52.375C53.1209 31.875 53.8363 32.1713 54.3637 32.6988C54.8912 33.2262 55.1875 33.9416 55.1875 34.6875V51.5625C55.1875 52.3084 54.8912 53.0238 54.3637 53.5512C53.8363 54.0787 53.1209 54.375 52.375 54.375H48.625C47.8791 54.375 47.1637 54.0787 46.6363 53.5512C46.1088 53.0238 45.8125 52.3084 45.8125 51.5625V34.6875ZM36.4375 43.125C35.6916 43.125 34.9762 43.4213 34.4488 43.9488C33.9213 44.4762 33.625 45.1916 33.625 45.9375V51.5625C33.625 52.3084 33.9213 53.0238 34.4488 53.5512C34.9762 54.0787 35.6916 54.375 36.4375 54.375H40.1875C40.9334 54.375 41.6488 54.0787 42.1762 53.5512C42.7037 53.0238 43 52.3084 43 51.5625V45.9375C43 45.1916 42.7037 44.4762 42.1762 43.9488C41.6488 43.4213 40.9334 43.125 40.1875 43.125H36.4375Z" fill="white"/>
</svg>
