<svg width="60" height="60" viewBox="0 0 60 60" fill="none" xmlns="http://www.w3.org/2000/svg">
<path d="M0 19C0 8.50659 8.50659 0 19 0H60V60H0V19Z" fill="#32618D"/>
<path d="M11.9948 29.9844C8.68396 26.6736 8.68396 21.3057 11.9948 17.9948C15.3056 14.684 20.6736 14.684 23.9844 17.9948L29.9792 23.9896L17.9896 35.9792L11.9948 29.9844Z" fill="#A6290D"/>
<path d="M36.0156 17.9948C39.3264 14.684 44.6943 14.684 48.0052 17.9948C51.316 21.3056 51.316 26.6736 48.0052 29.9844L42.0104 35.9792L30.0208 23.9896L36.0156 17.9948Z" fill="#A6290D"/>
<path d="M24.026 42.0157C20.7152 38.7048 20.7152 33.3369 24.026 30.0261C27.3369 26.7152 32.7048 26.7152 36.0157 30.0261C39.3265 33.3369 39.3265 38.7048 36.0156 42.0157L30.0209 48.0105L24.026 42.0157Z" fill="#A6290D"/>
</svg>
