<svg width="41" height="31" viewBox="0 0 41 31" fill="none" xmlns="http://www.w3.org/2000/svg">
<path d="M25.8774 30.593C25.2173 30.593 24.6349 30.354 24.1302 29.8761L22.6742 28.423C22.1825 27.9322 21.9366 27.3444 21.9366 26.6599C21.9366 25.9624 22.1825 25.3811 22.6742 24.9161L28.3622 19.2199L2.27131 19.2199C1.59833 19.2199 1.05154 18.9777 0.630923 18.4933C0.210311 18.0089 3.07083e-06 17.4244 3.10075e-06 16.7399L3.20916e-06 14.2599C3.23908e-06 13.5753 0.210311 12.9908 0.630924 12.5064C1.05154 12.022 1.59833 11.7799 2.27131 11.7799L28.3622 11.7799L22.6742 6.08361C22.1825 5.61861 21.9366 5.03736 21.9366 4.33986C21.9366 3.64236 22.1825 3.06111 22.6742 2.59611L24.1302 1.14299C24.622 0.652154 25.2044 0.406738 25.8774 0.406738C26.5633 0.406738 27.1521 0.652154 27.6439 1.14299L40.2817 13.7561C40.7606 14.2082 41 14.7894 41 15.4999C41 16.1974 40.7606 16.7851 40.2817 17.263L27.6439 29.8761C27.1392 30.354 26.5503 30.593 25.8774 30.593Z" fill="white"/>
</svg>
