<svg width="100" height="100" viewBox="0 0 100 100" fill="none" xmlns="http://www.w3.org/2000/svg">
<path d="M0 30C0 13.4315 13.4315 0 30 0H95C97.7614 0 100 2.23858 100 5V70C100 86.5685 86.5685 100 70 100H5C2.23858 100 0 97.7614 0 95V30Z" fill="#D3EC9E"/>
<path d="M40.2893 80V67.04H42.0973V78.704H45.4093V80H40.2893ZM49.0486 80.128C48.366 80.128 47.8273 79.9893 47.4326 79.712C47.038 79.4347 46.7553 79.04 46.5846 78.528C46.4246 78.016 46.3446 77.4133 46.3446 76.72V74.032C46.3446 73.3387 46.4246 72.736 46.5846 72.224C46.7553 71.712 47.038 71.3173 47.4326 71.04C47.8273 70.7627 48.366 70.624 49.0486 70.624C49.7313 70.624 50.2646 70.7627 50.6486 71.04C51.0433 71.3173 51.3206 71.712 51.4806 72.224C51.6513 72.736 51.7366 73.3387 51.7366 74.032V76.72C51.7366 77.4133 51.6513 78.016 51.4806 78.528C51.3206 79.04 51.0433 79.4347 50.6486 79.712C50.2646 79.9893 49.7313 80.128 49.0486 80.128ZM49.0486 78.864C49.3793 78.864 49.6086 78.768 49.7366 78.576C49.8753 78.384 49.9553 78.1333 49.9766 77.824C50.0086 77.504 50.0246 77.1733 50.0246 76.832V73.936C50.0246 73.584 50.0086 73.2533 49.9766 72.944C49.9553 72.6347 49.8753 72.384 49.7366 72.192C49.6086 71.9893 49.3793 71.888 49.0486 71.888C48.718 71.888 48.4833 71.9893 48.3446 72.192C48.206 72.384 48.1206 72.6347 48.0886 72.944C48.0673 73.2533 48.0566 73.584 48.0566 73.936V76.832C48.0566 77.1733 48.0673 77.504 48.0886 77.824C48.1206 78.1333 48.206 78.384 48.3446 78.576C48.4833 78.768 48.718 78.864 49.0486 78.864ZM54.2485 80L52.7605 70.752H54.1685L55.1285 77.568L56.3605 70.752H57.6725L58.9045 77.536L59.8645 70.752H61.2725L59.7365 80H58.2965L57.0325 73.472L55.7845 80H54.2485Z" fill="#141F00"/>
<path fill-rule="evenodd" clip-rule="evenodd" d="M60.8125 20.625C60.0666 20.625 59.3512 20.9213 58.8238 21.4488C58.2963 21.9762 58 22.6916 58 23.4375V51.5625C58 52.3084 58.2963 53.0238 58.8238 53.5512C59.3512 54.0787 60.0666 54.375 60.8125 54.375H64.5625C65.3084 54.375 66.0238 54.0787 66.5512 53.5512C67.0787 53.0238 67.375 52.3084 67.375 51.5625V23.4375C67.375 22.6916 67.0787 21.9762 66.5512 21.4488C66.0238 20.9213 65.3084 20.625 64.5625 20.625H60.8125ZM59.875 23.4375C59.875 23.1889 59.9738 22.9504 60.1496 22.7746C60.3254 22.5988 60.5639 22.5 60.8125 22.5H64.5625C64.8111 22.5 65.0496 22.5988 65.2254 22.7746C65.4012 22.9504 65.5 23.1889 65.5 23.4375V51.5625C65.5 51.8111 65.4012 52.0496 65.2254 52.2254C65.0496 52.4012 64.8111 52.5 64.5625 52.5H60.8125C60.5639 52.5 60.3254 52.4012 60.1496 52.2254C59.9738 52.0496 59.875 51.8111 59.875 51.5625V23.4375ZM45.8125 34.6875C45.8125 33.9416 46.1088 33.2262 46.6363 32.6988C47.1637 32.1713 47.8791 31.875 48.625 31.875H52.375C53.1209 31.875 53.8363 32.1713 54.3637 32.6988C54.8912 33.2262 55.1875 33.9416 55.1875 34.6875V51.5625C55.1875 52.3084 54.8912 53.0238 54.3637 53.5512C53.8363 54.0787 53.1209 54.375 52.375 54.375H48.625C47.8791 54.375 47.1637 54.0787 46.6363 53.5512C46.1088 53.0238 45.8125 52.3084 45.8125 51.5625V34.6875ZM48.625 33.75C48.3764 33.75 48.1379 33.8488 47.9621 34.0246C47.7863 34.2004 47.6875 34.4389 47.6875 34.6875V51.5625C47.6875 51.8111 47.7863 52.0496 47.9621 52.2254C48.1379 52.4012 48.3764 52.5 48.625 52.5H52.375C52.6236 52.5 52.8621 52.4012 53.0379 52.2254C53.2137 52.0496 53.3125 51.8111 53.3125 51.5625V34.6875C53.3125 34.4389 53.2137 34.2004 53.0379 34.0246C52.8621 33.8488 52.6236 33.75 52.375 33.75H48.625Z" fill="#141F00"/>
<path d="M33.625 45.9375C33.625 45.1916 33.9213 44.4762 34.4488 43.9488C34.9762 43.4213 35.6916 43.125 36.4375 43.125H40.1875C40.9334 43.125 41.6488 43.4213 42.1762 43.9488C42.7037 44.4762 43 45.1916 43 45.9375V51.5625C43 52.3084 42.7037 53.0238 42.1762 53.5512C41.6488 54.0787 40.9334 54.375 40.1875 54.375H36.4375C35.6916 54.375 34.9762 54.0787 34.4488 53.5512C33.9213 53.0238 33.625 52.3084 33.625 51.5625V45.9375Z" fill="#141F00"/>
</svg>
