<svg width="100" height="100" viewBox="0 0 100 100" fill="none" xmlns="http://www.w3.org/2000/svg">
<path d="M0 30C0 13.4315 13.4315 0 30 0H95C97.7614 0 100 2.23858 100 5V70C100 86.5685 86.5685 100 70 100H5C2.23858 100 0 97.7614 0 95V30Z" fill="#FFDF9D"/>
<path d="M27.9994 80L28.2394 67.04H30.0154L32.3034 77.552L34.6074 67.04H36.3674L36.6074 80H35.1514L35.0074 70.592L32.8154 80H31.7914L29.6154 70.592L29.4714 80H27.9994ZM41.0099 80.128C40.2846 80.128 39.7246 79.9893 39.3299 79.712C38.9353 79.424 38.6579 79.008 38.4979 78.464C38.3486 77.9093 38.2739 77.232 38.2739 76.432V74.32C38.2739 73.4987 38.3539 72.816 38.5139 72.272C38.6739 71.728 38.9513 71.3173 39.3459 71.04C39.7513 70.7627 40.3059 70.624 41.0099 70.624C41.7886 70.624 42.3593 70.784 42.7219 71.104C43.0953 71.424 43.3406 71.888 43.4579 72.496C43.5753 73.0933 43.6339 73.8133 43.6339 74.656V75.408H39.9859V77.264C39.9859 77.6373 40.0179 77.9413 40.0819 78.176C40.1566 78.4107 40.2686 78.5867 40.4179 78.704C40.5779 78.8107 40.7806 78.864 41.0259 78.864C41.2819 78.864 41.4739 78.8053 41.6019 78.688C41.7406 78.56 41.8313 78.384 41.8739 78.16C41.9273 77.9253 41.9539 77.6533 41.9539 77.344V76.784H43.6179V77.136C43.6179 78.064 43.4206 78.7947 43.0259 79.328C42.6313 79.8613 41.9593 80.128 41.0099 80.128ZM39.9859 74.48H41.9539V73.648C41.9539 73.264 41.9326 72.944 41.8899 72.688C41.8473 72.4213 41.7566 72.224 41.6179 72.096C41.4899 71.9573 41.2819 71.888 40.9939 71.888C40.7166 71.888 40.5033 71.952 40.3539 72.08C40.2153 72.208 40.1193 72.4267 40.0659 72.736C40.0126 73.0347 39.9859 73.4507 39.9859 73.984V74.48ZM47.3283 80.128C46.5496 80.128 45.9683 79.8453 45.5843 79.28C45.2003 78.704 45.0083 77.7333 45.0083 76.368V74.576C45.0083 73.872 45.067 73.2213 45.1843 72.624C45.3016 72.016 45.5203 71.5307 45.8403 71.168C46.171 70.8053 46.651 70.624 47.2803 70.624C47.5896 70.624 47.8723 70.6933 48.1283 70.832C48.3843 70.9707 48.6136 71.1413 48.8163 71.344V67.04H50.5283V80H48.8163V79.408C48.6136 79.6213 48.3896 79.7973 48.1443 79.936C47.9096 80.064 47.6376 80.128 47.3283 80.128ZM47.7603 78.784C47.9203 78.784 48.091 78.7573 48.2723 78.704C48.4536 78.64 48.635 78.5493 48.8163 78.432V72.368C48.667 72.2613 48.5016 72.1707 48.3203 72.096C48.139 72.0107 47.9416 71.968 47.7283 71.968C47.3336 71.968 47.067 72.16 46.9283 72.544C46.7896 72.9173 46.7203 73.3707 46.7203 73.904V76.512C46.7203 76.9387 46.7416 77.328 46.7843 77.68C46.8376 78.0213 46.939 78.2933 47.0883 78.496C47.2376 78.688 47.4616 78.784 47.7603 78.784ZM52.3744 80V70.752H54.0864V80H52.3744ZM52.3744 69.376V67.584H54.0864V69.376H52.3744ZM57.2467 80.128C56.884 80.128 56.6014 80.032 56.3987 79.84C56.196 79.648 56.052 79.408 55.9667 79.12C55.892 78.832 55.8547 78.5387 55.8547 78.24V70.752H57.5667V77.728C57.5667 78.0587 57.6147 78.32 57.7107 78.512C57.8067 78.6933 58.004 78.784 58.3027 78.784C58.4947 78.784 58.692 78.7307 58.8947 78.624C59.108 78.5067 59.3107 78.368 59.5027 78.208V70.752H61.2147V80H59.5027V79.088C59.204 79.376 58.8627 79.6213 58.4787 79.824C58.1054 80.0267 57.6947 80.128 57.2467 80.128ZM62.9656 80V70.752H64.5496V71.632C64.8589 71.28 65.2002 71.0187 65.5736 70.848C65.9469 70.6773 66.3309 70.592 66.7256 70.592C67.0669 70.592 67.3709 70.6773 67.6376 70.848C67.9149 71.0187 68.1122 71.3227 68.2296 71.76C68.5602 71.3547 68.9176 71.0613 69.3016 70.88C69.6962 70.688 70.1069 70.592 70.5336 70.592C70.8322 70.592 71.1042 70.6667 71.3496 70.816C71.5949 70.9547 71.7922 71.184 71.9416 71.504C72.0909 71.8133 72.1656 72.224 72.1656 72.736V80H70.5976V72.848C70.5976 72.4 70.5229 72.1013 70.3736 71.952C70.2349 71.792 70.0429 71.712 69.7976 71.712C69.5629 71.712 69.3176 71.7813 69.0616 71.92C68.8056 72.048 68.5709 72.2293 68.3576 72.464C68.3576 72.5067 68.3576 72.5493 68.3576 72.592C68.3576 72.6347 68.3576 72.6827 68.3576 72.736V80H66.7896V72.848C66.7896 72.4 66.7149 72.1013 66.5656 71.952C66.4269 71.792 66.2349 71.712 65.9896 71.712C65.7549 71.712 65.5096 71.7813 65.2536 71.92C65.0082 72.048 64.7736 72.2293 64.5496 72.464V80H62.9656Z" fill="#251A00"/>
<path d="M45.8125 34.6875C45.8125 33.9416 46.1088 33.2262 46.6363 32.6988C47.1637 32.1713 47.8791 31.875 48.625 31.875H52.375C53.1209 31.875 53.8363 32.1713 54.3637 32.6988C54.8912 33.2262 55.1875 33.9416 55.1875 34.6875V51.5625C55.1875 52.3084 54.8912 53.0238 54.3637 53.5512C53.8363 54.0787 53.1209 54.375 52.375 54.375H48.625C47.8791 54.375 47.1637 54.0787 46.6363 53.5512C46.1088 53.0238 45.8125 52.3084 45.8125 51.5625V34.6875ZM33.625 45.9375C33.625 45.1916 33.9213 44.4762 34.4488 43.9488C34.9762 43.4213 35.6916 43.125 36.4375 43.125H40.1875C40.9334 43.125 41.6488 43.4213 42.1762 43.9488C42.7037 44.4762 43 45.1916 43 45.9375V51.5625C43 52.3084 42.7037 53.0238 42.1762 53.5512C41.6488 54.0787 40.9334 54.375 40.1875 54.375H36.4375C35.6916 54.375 34.9762 54.0787 34.4488 53.5512C33.9213 53.0238 33.625 52.3084 33.625 51.5625V45.9375Z" fill="#251A00"/>
<path fill-rule="evenodd" clip-rule="evenodd" d="M58 23.4375C58 22.6916 58.2963 21.9762 58.8238 21.4488C59.3512 20.9213 60.0666 20.625 60.8125 20.625H64.5625C65.3084 20.625 66.0238 20.9213 66.5512 21.4488C67.0787 21.9762 67.375 22.6916 67.375 23.4375V51.5625C67.375 52.3084 67.0787 53.0238 66.5512 53.5512C66.0238 54.0787 65.3084 54.375 64.5625 54.375H60.8125C60.0666 54.375 59.3512 54.0787 58.8238 53.5512C58.2963 53.0238 58 52.3084 58 51.5625V23.4375ZM60.8125 22.5C60.5639 22.5 60.3254 22.5988 60.1496 22.7746C59.9738 22.9504 59.875 23.1889 59.875 23.4375V51.5625C59.875 51.8111 59.9738 52.0496 60.1496 52.2254C60.3254 52.4012 60.5639 52.5 60.8125 52.5H64.5625C64.8111 52.5 65.0496 52.4012 65.2254 52.2254C65.4012 52.0496 65.5 51.8111 65.5 51.5625V23.4375C65.5 23.1889 65.4012 22.9504 65.2254 22.7746C65.0496 22.5988 64.8111 22.5 64.5625 22.5H60.8125Z" fill="#251A00"/>
</svg>
