<svg width="28" height="28" viewBox="0 0 28 28" fill="none" xmlns="http://www.w3.org/2000/svg">
<g opacity="0.5">
<path d="M14 1.75C14.9283 1.75 15.8185 2.11875 16.4749 2.77513C17.1313 3.4315 17.5 4.32174 17.5 5.25V12.25H10.5V5.25C10.5 4.32174 10.8687 3.4315 11.5251 2.77513C12.1815 2.11875 13.0717 1.75 14 1.75ZM19.25 12.25V5.25C19.25 3.85761 18.6969 2.52226 17.7123 1.53769C16.7277 0.553123 15.3924 0 14 0C12.6076 0 11.2723 0.553123 10.2877 1.53769C9.30312 2.52226 8.75 3.85761 8.75 5.25V12.25C7.82174 12.25 6.9315 12.6187 6.27513 13.2751C5.61875 13.9315 5.25 14.8217 5.25 15.75V24.5C5.25 25.4283 5.61875 26.3185 6.27513 26.9749C6.9315 27.6313 7.82174 28 8.75 28H19.25C20.1783 28 21.0685 27.6313 21.7249 26.9749C22.3813 26.3185 22.75 25.4283 22.75 24.5V15.75C22.75 14.8217 22.3813 13.9315 21.7249 13.2751C21.0685 12.6187 20.1783 12.25 19.25 12.25ZM8.75 14H19.25C19.7141 14 20.1592 14.1844 20.4874 14.5126C20.8156 14.8408 21 15.2859 21 15.75V24.5C21 24.9641 20.8156 25.4092 20.4874 25.7374C20.1592 26.0656 19.7141 26.25 19.25 26.25H8.75C8.28587 26.25 7.84075 26.0656 7.51256 25.7374C7.18437 25.4092 7 24.9641 7 24.5V15.75C7 15.2859 7.18437 14.8408 7.51256 14.5126C7.84075 14.1844 8.28587 14 8.75 14Z" fill="#040F0F"/>
</g>
</svg>
