<svg width="54" height="18" viewBox="0 0 54 18" fill="none" xmlns="http://www.w3.org/2000/svg">
<path d="M0 9C0 4.02944 4.02944 0 9 0C13.9706 0 18 4.02944 18 9C18 13.9706 13.9706 18 9 18C4.02944 18 0 13.9706 0 9Z" fill="#0477BF"/>
<path d="M27 18C22.0294 18 18 13.9706 18 9C18 4.02944 22.0294 4.80506e-08 27 1.07324e-07L36 2.14648e-07L36 18L27 18Z" fill="#A6290D"/>
<path d="M45 -3.93402e-07C49.9706 -1.76132e-07 54 4.02944 54 9C54 13.9706 49.9706 18 45 18L36 18L36 -7.86805e-07L45 -3.93402e-07Z" fill="#A6290D"/>
</svg>
