<svg width="54" height="18" viewBox="0 0 54 18" fill="none" xmlns="http://www.w3.org/2000/svg">
<path d="M36 9C36 4.02944 40.0294 0 45 0C49.9706 0 54 4.02944 54 9C54 13.9706 49.9706 18 45 18C40.0294 18 36 13.9706 36 9Z" fill="#0477BF"/>
<path d="M9 18C4.02944 18 4.80506e-08 13.9706 1.07324e-07 9C1.66597e-07 4.02944 4.02944 4.80506e-08 9 1.07324e-07L18 2.14648e-07L18 18L9 18Z" fill="#A6290D"/>
<path d="M27 -3.93402e-07C31.9706 -1.76132e-07 36 4.02944 36 9C36 13.9706 31.9706 18 27 18L18 18L18 -7.86805e-07L27 -3.93402e-07Z" fill="#A6290D"/>
</svg>
