<svg width="45" height="40" viewBox="0 0 45 40" fill="none" xmlns="http://www.w3.org/2000/svg">
<g clip-path="url(#clip0_1311_3261)">
<path d="M16.65 11.225C15.65 12.7583 14.5083 15.0333 13.225 18.05C12.8583 17.3 12.55 16.6958 12.3 16.2375C12.05 15.7792 11.7125 15.25 11.2875 14.65C10.8625 14.05 10.4375 13.5792 10.0125 13.2375C9.5875 12.8958 9.0625 12.6042 8.4375 12.3625C7.8125 12.1208 7.13333 12 6.4 12H0.8C0.566667 12 0.375 11.925 0.225 11.775C0.075 11.625 0 11.4333 0 11.2V6.4C0 6.16667 0.075 5.975 0.225 5.825C0.375 5.675 0.566667 5.6 0.8 5.6H6.4C10.5667 5.6 13.9833 7.475 16.65 11.225ZM44.8 31.2C44.8 31.4333 44.725 31.625 44.575 31.775L36.575 39.775C36.425 39.925 36.2333 40 36 40C35.7833 40 35.5958 39.9208 35.4375 39.7625C35.2792 39.6042 35.2 39.4167 35.2 39.2V34.4C34.6667 34.4 33.9583 34.4042 33.075 34.4125C32.1917 34.4208 31.5167 34.4292 31.05 34.4375C30.5833 34.4458 29.975 34.4375 29.225 34.4125C28.475 34.3875 27.8833 34.3458 27.45 34.2875C27.0167 34.2292 26.4833 34.1417 25.85 34.025C25.2167 33.9083 24.6917 33.7542 24.275 33.5625C23.8583 33.3708 23.375 33.1333 22.825 32.85C22.275 32.5667 21.7833 32.2333 21.35 31.85C20.9167 31.4667 20.4583 31.0208 19.975 30.5125C19.4917 30.0042 19.025 29.425 18.575 28.775C19.5583 27.225 20.6917 24.95 21.975 21.95C22.3417 22.7 22.65 23.3042 22.9 23.7625C23.15 24.2208 23.4875 24.75 23.9125 25.35C24.3375 25.95 24.7625 26.4208 25.1875 26.7625C25.6125 27.1042 26.1375 27.3958 26.7625 27.6375C27.3875 27.8792 28.0667 28 28.8 28H35.2V23.2C35.2 22.9667 35.275 22.775 35.425 22.625C35.575 22.475 35.7667 22.4 36 22.4C36.2 22.4 36.4 22.4833 36.6 22.65L44.575 30.625C44.725 30.775 44.8 30.9667 44.8 31.2ZM44.8 8.8C44.8 9.03333 44.725 9.225 44.575 9.375L36.575 17.375C36.425 17.525 36.2333 17.6 36 17.6C35.7833 17.6 35.5958 17.5208 35.4375 17.3625C35.2792 17.2042 35.2 17.0167 35.2 16.8V12H28.8C28 12 27.275 12.125 26.625 12.375C25.975 12.625 25.4 13 24.9 13.5C24.4 14 23.975 14.5125 23.625 15.0375C23.275 15.5625 22.9 16.2083 22.5 16.975C21.9667 18.0083 21.3167 19.4333 20.55 21.25C20.0667 22.35 19.6542 23.275 19.3125 24.025C18.9708 24.775 18.5208 25.65 17.9625 26.65C17.4042 27.65 16.8708 28.4833 16.3625 29.15C15.8542 29.8167 15.2375 30.5083 14.5125 31.225C13.7875 31.9417 13.0375 32.5125 12.2625 32.9375C11.4875 33.3625 10.6 33.7125 9.6 33.9875C8.6 34.2625 7.53333 34.4 6.4 34.4H0.8C0.566667 34.4 0.375 34.325 0.225 34.175C0.075 34.025 0 33.8333 0 33.6V28.8C0 28.5667 0.075 28.375 0.225 28.225C0.375 28.075 0.566667 28 0.8 28H6.4C7.2 28 7.925 27.875 8.575 27.625C9.225 27.375 9.8 27 10.3 26.5C10.8 26 11.225 25.4875 11.575 24.9625C11.925 24.4375 12.3 23.7917 12.7 23.025C13.2333 21.9917 13.8833 20.5667 14.65 18.75C15.1333 17.65 15.5458 16.725 15.8875 15.975C16.2292 15.225 16.6792 14.35 17.2375 13.35C17.7958 12.35 18.3292 11.5167 18.8375 10.85C19.3458 10.1833 19.9625 9.49167 20.6875 8.775C21.4125 8.05833 22.1625 7.4875 22.9375 7.0625C23.7125 6.6375 24.6 6.2875 25.6 6.0125C26.6 5.7375 27.6667 5.6 28.8 5.6H35.2V0.8C35.2 0.566667 35.275 0.375 35.425 0.225C35.575 0.075 35.7667 0 36 0C36.2 0 36.4 0.0833333 36.6 0.25L44.575 8.225C44.725 8.375 44.8 8.56667 44.8 8.8Z" fill="#251A00"/>
</g>
<defs>
<clipPath id="clip0_1311_3261">
<rect width="44.8" height="40" fill="white"/>
</clipPath>
</defs>
</svg>
