<svg width="17" height="13" viewBox="0 0 17 13" fill="none" xmlns="http://www.w3.org/2000/svg">
<path d="M10.7296 12.8294C10.456 12.8294 10.2145 12.7292 10.0052 12.5288L9.40152 11.9194C9.1976 11.7136 9.09564 11.4671 9.09564 11.18C9.09564 10.8875 9.1976 10.6438 9.40152 10.4488L11.7599 8.06003L0.941763 8.06003C0.662723 8.06003 0.436003 7.95847 0.261602 7.75534C0.0872023 7.55222 2.13004e-06 7.30711 2.14259e-06 7.02003L2.18805e-06 5.98003C2.2006e-06 5.69295 0.0872024 5.44784 0.261603 5.24472C0.436003 5.04159 0.662723 4.94003 0.941764 4.94003L11.7599 4.94003L9.40152 2.55128C9.1976 2.35628 9.09564 2.11253 9.09564 1.82003C9.09564 1.52753 9.1976 1.28378 9.40152 1.08878L10.0052 0.479404C10.2091 0.273571 10.4506 0.170654 10.7296 0.170654C11.014 0.170654 11.2582 0.273571 11.4621 0.479404L16.7022 5.76878C16.9007 5.95836 17 6.20211 17 6.50003C17 6.79253 16.9007 7.03899 16.7022 7.2394L11.4621 12.5288C11.2528 12.7292 11.0087 12.8294 10.7296 12.8294Z" fill="#040F0F"/>
</svg>
