<svg width="45" height="45" viewBox="0 0 45 45" fill="none" xmlns="http://www.w3.org/2000/svg">
<path d="M22.5 22.5C20.4375 22.5 18.6719 21.7656 17.2031 20.2969C15.7344 18.8281 15 17.0625 15 15C15 12.9375 15.7344 11.1719 17.2031 9.70313C18.6719 8.23438 20.4375 7.5 22.5 7.5C24.5625 7.5 26.3281 8.23438 27.7969 9.70313C29.2656 11.1719 30 12.9375 30 15C30 17.0625 29.2656 18.8281 27.7969 20.2969C26.3281 21.7656 24.5625 22.5 22.5 22.5ZM7.5 37.5V32.25C7.5 31.1875 7.77375 30.2112 8.32125 29.3212C8.86875 28.4312 9.595 27.7513 10.5 27.2812C12.4375 26.3125 14.4062 25.5862 16.4062 25.1025C18.4062 24.6187 20.4375 24.3762 22.5 24.375C24.5625 24.3738 26.5938 24.6162 28.5938 25.1025C30.5938 25.5887 32.5625 26.315 34.5 27.2812C35.4062 27.75 36.1331 28.43 36.6806 29.3212C37.2281 30.2125 37.5012 31.1888 37.5 32.25V37.5H7.5Z" fill="#32618D"/>
</svg>
