<svg width="45" height="45" viewBox="0 0 45 45" fill="none" xmlns="http://www.w3.org/2000/svg">
<path d="M7.5 35.625V31.875H11.25V18.75C11.25 16.1563 12.0312 13.8519 13.5938 11.8369C15.1562 9.82188 17.1875 8.50125 19.6875 7.875V6.5625C19.6875 5.78125 19.9612 5.1175 20.5087 4.57125C21.0562 4.025 21.72 3.75125 22.5 3.75C23.28 3.74875 23.9444 4.0225 24.4931 4.57125C25.0419 5.12 25.315 5.78375 25.3125 6.5625V7.875C27.8125 8.5 29.8438 9.82063 31.4062 11.8369C32.9688 13.8531 33.75 16.1575 33.75 18.75V31.875H37.5V35.625H7.5ZM22.5 41.25C21.4688 41.25 20.5863 40.8831 19.8525 40.1494C19.1188 39.4156 18.7513 38.5325 18.75 37.5H26.25C26.25 38.5313 25.8831 39.4144 25.1494 40.1494C24.4156 40.8844 23.5325 41.2513 22.5 41.25Z" fill="#775A0B"/>
</svg>
