<svg width="45" height="45" viewBox="0 0 45 45" fill="none" xmlns="http://www.w3.org/2000/svg">
<path d="M22.5 41.25C19.9375 41.25 17.5156 40.7575 15.2344 39.7725C12.9531 38.7875 10.9613 37.4438 9.25875 35.7413C7.55625 34.0387 6.2125 32.0469 5.2275 29.7656C4.2425 27.4844 3.75 25.0625 3.75 22.5C3.75 19.9062 4.2425 17.4769 5.2275 15.2119C6.2125 12.9469 7.55625 10.9625 9.25875 9.25875C10.9613 7.555 12.9531 6.21125 15.2344 5.2275C17.5156 4.24375 19.9375 3.75125 22.5 3.75C25.0938 3.75 27.5237 4.2425 29.79 5.2275C32.0562 6.2125 34.04 7.55625 35.7413 9.25875C37.4425 10.9613 38.7863 12.9456 39.7725 15.2119C40.7588 17.4781 41.2513 19.9075 41.25 22.5C41.25 25.0625 40.7575 27.4844 39.7725 29.7656C38.7875 32.0469 37.4438 34.0394 35.7413 35.7431C34.0387 37.4469 32.0544 38.7906 29.7881 39.7744C27.5219 40.7581 25.0925 41.25 22.5 41.25ZM22.5 37.4062C23.3125 36.2812 24.0156 35.1094 24.6094 33.8906C25.2031 32.6719 25.6875 31.375 26.0625 30H18.9375C19.3125 31.375 19.7969 32.6719 20.3906 33.8906C20.9844 35.1094 21.6875 36.2812 22.5 37.4062ZM17.625 36.6562C17.0625 35.625 16.5706 34.5544 16.1494 33.4444C15.7281 32.3344 15.3763 31.1863 15.0938 30H9.5625C10.4688 31.5625 11.6019 32.9219 12.9619 34.0781C14.3219 35.2344 15.8762 36.0938 17.625 36.6562ZM27.375 36.6562C29.125 36.0938 30.68 35.2344 32.04 34.0781C33.4 32.9219 34.5325 31.5625 35.4375 30H29.9062C29.625 31.1875 29.2737 32.3362 28.8525 33.4462C28.4312 34.5562 27.9388 35.6262 27.375 36.6562ZM7.96875 26.25H14.3438C14.25 25.625 14.18 25.0081 14.1337 24.3994C14.0875 23.7906 14.0638 23.1575 14.0625 22.5C14.0612 21.8425 14.085 21.21 14.1337 20.6025C14.1825 19.995 14.2525 19.3775 14.3438 18.75H7.96875C7.8125 19.375 7.69563 19.9925 7.61813 20.6025C7.54063 21.2125 7.50125 21.845 7.5 22.5C7.49875 23.155 7.53813 23.7881 7.61813 24.3994C7.69813 25.0106 7.815 25.6275 7.96875 26.25ZM18.0937 26.25H26.9062C27 25.625 27.0706 25.0081 27.1181 24.3994C27.1656 23.7906 27.1887 23.1575 27.1875 22.5C27.1863 21.8425 27.1625 21.21 27.1162 20.6025C27.07 19.995 27 19.3775 26.9062 18.75H18.0937C18 19.375 17.93 19.9925 17.8837 20.6025C17.8375 21.2125 17.8138 21.845 17.8125 22.5C17.8112 23.155 17.835 23.7881 17.8837 24.3994C17.9325 25.0106 18.0025 25.6275 18.0937 26.25ZM30.6562 26.25H37.0312C37.1875 25.625 37.305 25.0081 37.3838 24.3994C37.4625 23.7906 37.5013 23.1575 37.5 22.5C37.4987 21.8425 37.46 21.21 37.3838 20.6025C37.3075 19.995 37.19 19.3775 37.0312 18.75H30.6562C30.75 19.375 30.8206 19.9925 30.8681 20.6025C30.9156 21.2125 30.9387 21.845 30.9375 22.5C30.9363 23.155 30.9125 23.7881 30.8662 24.3994C30.82 25.0106 30.75 25.6275 30.6562 26.25ZM29.9062 15H35.4375C34.5312 13.4375 33.3987 12.0781 32.04 10.9219C30.6812 9.76562 29.1263 8.90625 27.375 8.34375C27.9375 9.375 28.43 10.4456 28.8525 11.5556C29.275 12.6656 29.6262 13.8138 29.9062 15ZM18.9375 15H26.0625C25.6875 13.625 25.2031 12.3281 24.6094 11.1094C24.0156 9.89063 23.3125 8.71875 22.5 7.59375C21.6875 8.71875 20.9844 9.89063 20.3906 11.1094C19.7969 12.3281 19.3125 13.625 18.9375 15ZM9.5625 15H15.0938C15.375 13.8125 15.7269 12.6638 16.1494 11.5538C16.5719 10.4438 17.0637 9.37375 17.625 8.34375C15.875 8.90625 14.32 9.76562 12.96 10.9219C11.6 12.0781 10.4675 13.4375 9.5625 15Z" fill="#904B3B"/>
</svg>
