<svg width="39" height="33" viewBox="0 0 39 33" fill="none" xmlns="http://www.w3.org/2000/svg">
<path d="M5.4375 25.6625L7.4625 27.6875L3.15 31.9625C2.625 32.5063 1.6875 32.5063 1.1625 31.9625C0.6375 31.4188 0.61875 30.5 1.1625 29.975L5.4375 25.6625ZM31.2938 3.1625V0.5L19.5 12.2937L7.70625 0.5V3.1625L18.1687 13.625L11.0625 20.7688C8.85 19.1938 5.775 19.3813 3.80625 21.35L11.775 29.3188C13.7437 27.35 13.9312 24.275 12.375 22.0625L31.2938 3.1625ZM37.8375 29.975L33.5625 25.6625L31.5375 27.6875L35.85 31.9625C36.375 32.5063 37.3125 32.5063 37.8375 31.9625C38.3625 31.4188 38.3812 30.5 37.8375 29.975ZM27.9375 20.7688L22.1625 14.9563L20.8312 16.2875L26.6437 22.0625C25.0688 24.275 25.2563 27.35 27.225 29.3188L35.1937 21.35C33.225 19.3813 30.15 19.1938 27.9375 20.7688Z" fill="#040F0F"/>
</svg>
