<svg width="18" height="19" viewBox="0 0 18 19" fill="none" xmlns="http://www.w3.org/2000/svg">
<path fill-rule="evenodd" clip-rule="evenodd" d="M14.1384 5.33828C14.2025 5.27422 14.2534 5.19816 14.2882 5.11443C14.3229 5.0307 14.3408 4.94095 14.3409 4.85031C14.3409 4.75966 14.3231 4.66989 14.2885 4.58612C14.2539 4.50235 14.2031 4.42622 14.139 4.36208C14.0749 4.29794 13.9989 4.24705 13.9152 4.21231C13.8314 4.17757 13.7417 4.15966 13.651 4.1596C13.5604 4.15955 13.4706 4.17735 13.3868 4.21199C13.3031 4.24662 13.2269 4.29742 13.1628 4.36148L9 8.52428L4.8384 4.36148C4.70887 4.23195 4.53319 4.15918 4.35 4.15918C4.16682 4.15918 3.99114 4.23195 3.8616 4.36148C3.73207 4.49101 3.6593 4.6667 3.6593 4.84988C3.6593 5.03307 3.73207 5.20875 3.8616 5.33828L8.0244 9.49988L3.8616 13.6615C3.79747 13.7256 3.74659 13.8018 3.71188 13.8856C3.67717 13.9694 3.6593 14.0592 3.6593 14.1499C3.6593 14.2406 3.67717 14.3304 3.71188 14.4142C3.74659 14.498 3.79747 14.5741 3.8616 14.6383C3.99114 14.7678 4.16682 14.8406 4.35 14.8406C4.44071 14.8406 4.53052 14.8227 4.61432 14.788C4.69812 14.7533 4.77427 14.7024 4.8384 14.6383L9 10.4755L13.1628 14.6383C13.2923 14.7677 13.468 14.8403 13.651 14.8402C13.8341 14.84 14.0096 14.7672 14.139 14.6377C14.2684 14.5081 14.341 14.3325 14.3409 14.1495C14.3408 13.9664 14.2679 13.7909 14.1384 13.6615L9.9756 9.49988L14.1384 5.33828Z" fill="#DEE3EB"/>
</svg>
